<?xml version="1.0" encoding="utf-8"?>
<!-- Generator: Adobe Illustrator 19.2.0, SVG Export Plug-In . SVG Version: 6.00 Build 0)  -->
<svg version="1.1" id="Layer_1" xmlns="http://www.w3.org/2000/svg" xmlns:xlink="http://www.w3.org/1999/xlink" x="0px" y="0px"
	 viewBox="0 0 26.7 32" style="enable-background:new 0 0 26.7 32;" xml:space="preserve">
<style type="text/css">
	.st0{fill:none;}
</style>
<g>
	<path class="st0" d="M15,19.9h-3.2v-6.5H15c0.3,0,0.5-0.2,0.5-0.5s-0.2-0.5-0.5-0.5h-3.8c-0.3,0-0.5,0.2-0.5,0.5v7.5
		c0,0.3,0.2,0.5,0.5,0.5H15c0.3,0,0.5-0.2,0.5-0.5C15.5,20.1,15.3,19.9,15,19.9z M18.8,16.1h-3.2v-1.6l-2.2,2.2l2.2,2.2v-1.6h3.2
		c0.3,0,0.5-0.2,0.5-0.5C19.3,16.3,19.1,16.1,18.8,16.1z"/>
</g>
</svg>
